<?xml version="1.0" encoding="UTF-8"?>
<!DOCTYPE svg PUBLIC "-//W3C//DTD SVG 1.1//EN" "http://www.w3.org/Graphics/SVG/1.1/DTD/svg11.dtd">
<!-- Creator: CorelDRAW 2021 (64-Bit) -->
<svg xmlns="http://www.w3.org/2000/svg" xml:space="preserve" width="70px" height="62px" version="1.1" style="shape-rendering:geometricPrecision; text-rendering:geometricPrecision; image-rendering:optimizeQuality; fill-rule:evenodd; clip-rule:evenodd"
viewBox="0 0 5.63 5.02"
 xmlns:xlink="http://www.w3.org/1999/xlink"
 xmlns:xodm="http://www.corel.com/coreldraw/odm/2003">
 <defs>
  <style type="text/css">
   <![CDATA[
    .fil0 {fill:#00819E}
   ]]>
  </style>
 </defs>
 <g id="Слой_x0020_1">
  <metadata id="CorelCorpID_0Corel-Layer"/>
  <path class="fil0" d="M2.01 2.51c0,-0.45 0.36,-0.81 0.81,-0.81 0.44,0 0.8,0.36 0.8,0.81 0,0.44 -0.36,0.8 -0.8,0.8 -0.45,0 -0.81,-0.36 -0.81,-0.8zm-0.59 -0.81c-0.18,-0.1 -0.88,-0.04 -1.42,0.66 0,0.03 0,0.06 0,0.1 0.49,0.73 1.18,0.84 1.37,0.75 0.02,0.04 0.03,0.07 0.05,0.1 -0.18,0.11 -0.47,0.75 -0.14,1.56 0.03,0.02 0.06,0.03 0.08,0.05 0.88,-0.05 1.33,-0.6 1.34,-0.81 0.04,0.01 0.08,0.01 0.12,0.01 0,0.2 0.4,0.78 1.28,0.9 0.02,-0.02 0.05,-0.03 0.08,-0.05 0.39,-0.79 0.14,-1.45 -0.03,-1.56 0.02,-0.03 0.04,-0.06 0.06,-0.1 0.18,0.11 0.88,0.04 1.42,-0.66 0,-0.03 0,-0.06 0,-0.09 -0.49,-0.74 -1.18,-0.85 -1.37,-0.76 -0.01,-0.03 -0.03,-0.06 -0.05,-0.1 0.18,-0.1 0.47,-0.74 0.14,-1.56 -0.03,-0.01 -0.05,-0.03 -0.08,-0.04 -0.88,0.05 -1.33,0.6 -1.34,0.8 -0.04,0 -0.08,0 -0.11,0 0,-0.21 -0.41,-0.79 -1.29,-0.9 -0.02,0.01 -0.05,0.03 -0.08,0.04 -0.39,0.79 -0.14,1.45 0.03,1.57 -0.02,0.03 -0.04,0.06 -0.06,0.09z"/>
 </g>
</svg>
