<?xml version="1.0" encoding="UTF-8"?>
<!DOCTYPE svg PUBLIC "-//W3C//DTD SVG 1.1//EN" "http://www.w3.org/Graphics/SVG/1.1/DTD/svg11.dtd">
<!-- Creator: CorelDRAW 2021 (64-Bit) -->
<svg xmlns="http://www.w3.org/2000/svg" xml:space="preserve" width="25px" height="284px" version="1.1" style="shape-rendering:geometricPrecision; text-rendering:geometricPrecision; image-rendering:optimizeQuality; fill-rule:evenodd; clip-rule:evenodd"
viewBox="0 0 0.7 7.92"
 xmlns:xlink="http://www.w3.org/1999/xlink"
 xmlns:xodm="http://www.corel.com/coreldraw/odm/2003">
 <defs>
  <style type="text/css">
   <![CDATA[
    .fil0 {fill:#00819E}
   ]]>
  </style>
 </defs>
 <g id="Слой_x0020_1">
  <metadata id="CorelCorpID_0Corel-Layer"/>
  <polygon class="fil0" points="0.7,3.57 0.29,3.35 0.29,3.24 0.7,3.01 0.7,2.9 0.29,2.68 0.29,2.57 0.7,2.34 0.7,2.23 0.29,2.01 0.29,1.9 0.7,1.67 0.7,1.56 0.29,1.34 0.29,1.23 0.7,1 0.7,0.89 0.29,0.67 0.29,0.56 0.7,0.33 0.7,0.22 0.29,0 0,0 0,7.92 0.29,7.92 0.7,7.7 0.7,7.59 0.29,7.37 0.29,7.25 0.7,7.03 0.7,6.92 0.29,6.7 0.29,6.58 0.7,6.36 0.7,6.25 0.29,6.03 0.29,5.91 0.7,5.69 0.7,5.58 0.29,5.36 0.29,5.24 0.7,5.02 0.7,4.91 0.29,4.69 0.29,4.58 0.7,4.35 0.7,4.24 0.29,4.02 0.29,3.91 0.7,3.68 "/>
 </g>
</svg>
